<svg width="252" height="104" viewBox="0 0 252 104" fill="none" xmlns="http://www.w3.org/2000/svg">
<path d="M250.303 34.9107C251.188 41.2135 248.738 47.7926 243.314 54.3392C237.888 60.8863 229.554 67.3127 218.888 73.2453C197.562 85.1068 167.105 94.8885 132.576 99.735C98.0477 104.582 66.0747 103.563 42.3073 98.0305C30.4202 95.2637 20.6388 91.38 13.6208 86.5794C6.60338 81.7792 2.43737 76.1287 1.55269 69.8259C0.668012 63.5231 3.11746 56.944 8.54224 50.3974C13.9674 43.8503 22.3016 37.4238 32.9677 31.4913C54.2937 19.6298 84.7507 9.84814 119.279 5.00161C153.808 0.155091 185.781 1.17387 209.548 6.70605C221.436 9.47294 231.217 13.3566 238.235 18.1572C245.252 22.9574 249.418 28.6079 250.303 34.9107Z" stroke="#DEF858" stroke-width="2"/>
</svg>
